<svg width="60" height="46" viewBox="0 0 60 46" fill="none" xmlns="http://www.w3.org/2000/svg">
<g clip-path="url(#clip0_512_4)">
<path d="M59.4508 29.2221C58.9408 27.6019 55.2675 13.8941 55.3076 13.7614C55.3213 13.7162 55.4787 13.639 55.6579 13.59C56.0497 13.4832 56.52 13.1113 56.8357 12.6599C57.4473 11.7844 57.1382 10.4693 56.208 9.99103C55.7453 9.75286 55.1304 9.67849 54.6611 9.80369C54.4517 9.85971 54.3335 9.89595 54.2395 9.68131C54.0901 9.34005 54.0225 8.94937 53.9119 8.59304C53.6775 7.84039 53.4643 7.08067 53.2564 6.32048C53.0451 5.53535 52.84 4.74975 52.6263 3.9665C52.4217 3.21572 51.3667 2.59533 50.593 2.79068C50.4711 2.82127 50.1918 2.89235 49.9725 2.94836C49.7531 3.00438 49.4776 3.09899 49.3594 3.15877C49.0683 3.30704 48.8627 3.04674 48.6519 2.26349C48.4926 1.67228 48.4817 1.65675 48.1429 1.55555C47.8139 1.45717 47.6702 1.48541 45.2697 2.12134C42.3634 2.89141 42.0907 3.00814 42.0221 3.51368C41.9971 3.69725 42.0448 4.09923 42.1275 4.40707C42.2807 4.9771 42.2736 5.1329 42.0963 5.08018C42.042 5.06371 41.5925 5.16585 41.0981 5.30706L40.1992 5.56359L39.4996 4.73186C39.1149 4.27433 38.7028 3.75939 38.5837 3.58805C38.4357 3.37482 37.7769 2.91447 36.505 2.13499C35.4808 1.50754 34.5147 0.891857 34.3587 0.767592C33.9986 0.480933 33.2343 0.0893075 32.8704 0.00505151C32.5055 -0.0792045 28.0801 1.02224 25.8843 1.74383C25.0472 2.01872 24.2938 2.26349 24.2106 2.28702C24.1274 2.31056 23.6586 3.10275 23.1694 4.04651C22.6797 4.99075 22.131 6.03571 21.95 6.36944C21.2798 7.60221 21.0732 8.12281 20.7206 9.46996L20.3595 10.8482L19.6629 11.0341L18.9662 11.22L18.8424 10.8054C18.6769 10.2509 18.5805 10.007 18.511 9.96703C18.4794 9.94867 18.1925 9.97362 17.8739 10.0221L17.2945 10.1106L17.1347 9.62153C16.8974 8.89523 16.741 8.84393 15.6534 9.13388C15.0745 9.28827 14.7568 9.41254 14.703 9.50574C14.6585 9.58246 14.6746 9.90725 14.7394 10.2269C14.8698 10.8731 14.9407 10.7837 14.0838 11.0496C13.718 11.1631 13.6296 11.4441 13.7813 12.0089L13.907 12.4759L13.3399 12.627C13.0279 12.7103 12.3785 12.8835 12.31 12.9334C12.0789 13.1005 11.653 12.4556 11.5523 12.297C11.376 12.0188 11.1605 11.7581 10.954 11.4973C10.8916 11.4187 10.8207 11.2939 10.7394 11.2436C10.6345 11.1786 10.4464 11.1885 10.3306 11.2036C9.86075 11.2648 9.8253 11.2469 9.649 10.8623C9.48689 10.5088 9.27089 10.3252 9.02134 10.3295C8.8942 10.3314 7.56276 10.6797 6.0626 11.1033C5.98461 11.1254 5.90663 11.1476 5.82864 11.1692C5.35458 11.3029 4.88005 11.437 4.40599 11.5707C4.17298 11.6366 3.93996 11.702 3.70742 11.7679C3.62991 11.7896 3.54294 11.8042 3.46874 11.8352C3.33167 11.8927 3.24613 12.0259 3.17192 12.1534C3.08259 12.3074 2.98854 12.5879 2.96301 12.7771C2.92851 13.0332 2.85194 13.1528 2.66241 13.2459C2.34858 13.4003 2.08012 14.1699 2.00969 15.1151L1.96196 15.7576L1.48175 15.8857C0.587987 16.1243 0.262337 16.5555 0.233506 17.5388C0.204202 18.547 1.23267 22.6614 1.74738 23.5934C1.84711 23.7742 1.93643 23.946 1.94541 23.9756C1.9544 24.0048 1.70106 24.1277 1.38203 24.2482C0.495349 24.5829 0.156938 24.9213 0.0444492 25.584C-0.0325915 26.0383 -0.0155763 26.2298 0.143704 26.7114C0.45612 27.6556 1.0956 28.0618 2.17937 28.0039C2.35898 27.9945 2.55938 28.01 2.6246 28.0383C2.70164 28.0722 2.90582 28.6648 3.20831 29.7338C3.92484 32.2652 4.64136 34.7971 5.34749 37.3314C5.94491 39.4745 6.3977 41.6454 6.96582 43.7932C7.25366 44.882 7.3255 45.0627 7.57411 45.3338C8.01319 45.8116 8.51655 46.0526 8.95044 45.9919C10.3083 45.8017 13.9236 44.9168 21.5728 42.9031C31.1348 40.3858 30.2519 40.5764 31.5673 40.7459C32.5386 40.8711 34.0142 40.8866 34.682 40.7784C35.106 40.7096 35.5677 40.6522 35.7072 40.6503C35.8471 40.6484 36.419 40.5571 36.9781 40.4475C38.5416 40.1401 38.6049 40.1217 40.2715 39.4811C42.344 38.6842 43.9094 37.8205 44.9152 36.9176C45.1988 36.663 45.4488 36.5867 50.8785 35.0956C53.0839 34.4898 55.293 33.8938 57.4851 33.2419C58.2418 33.0169 59.2206 32.9237 59.7368 32.252C60.3621 31.4387 59.7117 30.0524 59.4508 29.223V29.2221ZM58.1269 28.5292C58.1312 28.7989 58.0749 28.8437 57.8741 28.7283C57.6949 28.6253 57.6382 28.3871 57.754 28.2237C57.8911 28.0312 58.1217 28.2205 58.1265 28.5292H58.1269ZM57.6255 26.9279C57.7124 26.9048 57.7649 26.9731 57.7899 27.1425C57.8315 27.4221 57.5877 27.6071 57.4416 27.4071C57.3343 27.2597 57.443 26.9769 57.6255 26.9279ZM57.0299 24.8733C57.0446 24.9801 57.0909 25.1049 57.133 25.151C57.2237 25.2498 56.8357 26.0251 56.5663 26.2835C56.4699 26.3758 56.3578 26.4431 56.3162 26.4327C56.209 26.4064 56.615 25.1999 56.8262 24.9166C56.9888 24.6982 57.0058 24.6949 57.0299 24.8733ZM56.5979 29.5092C56.7757 29.5893 56.8801 29.6599 56.8295 29.6665C56.779 29.6726 56.5649 29.7079 56.3536 29.7441C55.9533 29.8133 55.8809 29.7714 56.0114 29.546C56.1234 29.3525 56.2345 29.3454 56.5979 29.5092ZM56.8286 23.5049C56.8475 23.5746 56.7908 23.7172 56.7033 23.8213C56.6154 23.9253 56.5129 24.0189 56.4751 24.0288C56.3678 24.0575 56.3125 23.7455 56.399 23.5967C56.5067 23.4113 56.7875 23.351 56.8286 23.5049ZM56.0322 21.3698C56.3938 20.7669 56.5337 20.78 56.3181 21.3962C56.2477 21.5981 56.122 21.8443 56.0393 21.9427C55.7689 22.2637 55.7633 21.8184 56.0322 21.3698ZM55.7812 22.6073C55.9117 22.8102 55.837 23.1251 55.5421 23.6174C55.1725 24.2341 55.0023 24.4586 54.9768 24.363C54.9404 24.2275 55.059 23.7182 55.1838 23.4762C55.2452 23.3567 55.3549 23.0846 55.4277 22.8709C55.578 22.4289 55.6385 22.3842 55.7817 22.6073H55.7812ZM54.9744 27.3704C55.4981 27.2828 55.8833 27.5026 56.0114 27.9611C56.0799 28.2063 56.0398 28.3424 55.8091 28.6511C55.4404 29.1444 55.0784 29.2343 54.6644 28.9364C54.256 28.6427 54.1435 28.2242 54.3562 27.794C54.5056 27.4927 54.5897 27.4348 54.9744 27.3708V27.3704ZM54.7367 11.7882C54.6157 11.2215 54.7239 11.0737 55.1819 11.18C55.5539 11.2666 55.6125 11.655 55.3029 11.9821C54.9201 12.3869 54.86 12.3667 54.7367 11.7882ZM55.0448 18.0933C55.2452 18.0396 55.181 18.362 54.8737 18.9495C54.7301 19.2239 54.4252 19.391 54.4862 19.1618C54.5812 18.8021 54.9371 18.122 55.0448 18.0933ZM54.7641 17.7426C54.739 17.9271 54.5812 18.315 54.4129 18.6054L54.1071 19.133L54.0703 18.7725C54.0509 18.5814 54.0986 18.4533 54.144 18.274C54.1898 18.0933 54.2371 17.9125 54.316 17.7426C54.3709 17.6235 54.4885 17.2992 54.6355 17.2596C54.7934 17.2177 54.8213 17.3218 54.7641 17.7431V17.7426ZM54.2721 29.8383C54.3387 30.0854 54.2447 30.2318 53.9053 30.4106C53.7687 30.4827 53.5948 30.5796 53.5192 30.6253C53.4364 30.6756 53.3268 30.6507 53.2436 30.5627C53.0957 30.4055 53.1807 30.2666 53.6524 29.8938C54.0031 29.6166 54.2073 29.5982 54.2721 29.8383ZM55.2429 22.1653C55.1228 22.4237 55.0935 22.4492 54.9891 22.3889C54.887 22.3301 55.0439 21.681 55.1687 21.6452C55.3308 21.5986 55.3719 21.8876 55.2429 22.1653ZM54.4682 10.5201C54.523 10.3375 55.2627 10.2396 55.6976 10.3572C56.278 10.514 56.753 11.3118 56.5682 11.8183C56.5218 11.9449 56.3422 12.1887 56.1693 12.3596C55.7789 12.7451 55.3072 12.9744 55.1228 12.8684C54.9215 12.7527 55.0009 12.6858 55.1871 12.6246C55.3317 12.5771 55.4386 12.5615 55.5577 12.4693C55.863 12.233 56.1229 11.9703 56.1442 11.5632C56.1622 11.2163 55.932 10.9692 55.646 10.8049C55.3388 10.6279 55.1966 10.6044 54.9082 10.6811C54.5235 10.7837 54.4021 10.7395 54.4682 10.5206V10.5201ZM54.3151 13.4356C54.4285 13.4695 54.6015 14.0678 54.542 14.2198C54.5193 14.2777 54.3553 14.378 54.1771 14.4425C53.9053 14.5409 53.8462 14.5324 53.8079 14.3902C53.7541 14.1892 54.1761 13.3942 54.3146 13.4356H54.3151ZM53.6 16.0297C53.763 15.9784 53.825 16.2938 53.6973 16.5277C53.5428 16.8115 53.3934 16.8953 53.2611 16.7715C53.1841 16.6995 53.4714 16.0702 53.5995 16.0302L53.6 16.0297ZM47.6957 2.13969C47.7728 2.11945 47.8583 2.2955 47.9784 2.72431C48.0734 3.0618 48.1443 3.33999 48.1362 3.34187C48.1282 3.34422 48.0483 3.25714 47.959 3.14888C47.7364 2.88011 47.553 2.17735 47.6957 2.13969ZM46.949 2.35622L47.2288 2.25219L47.3795 2.81186C47.4651 3.13005 47.4967 3.42942 47.4523 3.50568C47.4098 3.57911 47.3327 3.65018 47.2817 3.66289C47.0454 3.7222 46.9438 3.58664 46.8095 3.03591L46.6696 2.46071L46.9494 2.35669L46.949 2.35622ZM45.9673 2.60051C46.1842 2.54262 46.1866 2.54638 46.2835 3.15265C46.3374 3.48826 46.3719 3.79751 46.3605 3.8394C46.3492 3.8813 46.2627 3.93637 46.1682 3.96132C46.0179 4.00133 45.9796 3.94296 45.8567 3.48638C45.6785 2.8241 45.6974 2.67253 45.9673 2.60051ZM45.0409 2.84763C45.2177 2.80056 45.264 2.91635 45.3736 3.67842C45.4261 4.04322 45.4072 4.16466 45.2923 4.19526C45.0603 4.25739 45.0031 4.18584 44.8599 3.65395C44.7214 3.13853 44.7701 2.92059 45.0409 2.8481V2.84763ZM43.9311 3.19125C44.1897 3.12205 44.1991 3.131 44.3182 3.55934C44.3853 3.80081 44.4425 4.06299 44.4454 4.1416C44.4482 4.22067 44.3565 4.31858 44.2412 4.36C43.9931 4.4485 43.8593 4.26021 43.7426 3.65818C43.6702 3.28397 43.6806 3.25809 43.9307 3.19125H43.9311ZM42.8719 3.56498L43.2023 3.47367L43.3101 3.87471C43.3696 4.09547 43.38 4.38024 43.3332 4.50828C43.2387 4.76669 42.9424 4.89237 42.8204 4.72574C42.7769 4.66643 42.6966 4.40142 42.6413 4.13689L42.5411 3.6563L42.8715 3.56498H42.8719ZM49.3202 4.11853C49.8273 3.99991 50.4952 3.70149 51.0104 3.72361C51.8885 3.7608 51.9939 5.05194 52.1712 5.70245C52.2978 6.16751 52.424 6.63256 52.5507 7.09715C52.987 8.7013 53.3429 10.0673 53.341 10.1327C53.3381 10.2245 52.7927 10.3925 50.9352 10.8741C48.106 11.6074 45.4072 12.2457 45.3311 12.1991C45.2404 12.1436 44.5763 11.2648 44.0833 10.5469C43.4613 9.6413 41.5717 7.14139 41.1681 6.68952C40.9913 6.49182 40.8438 6.31907 40.8401 6.30542C40.8287 6.26259 47.4216 4.56241 49.3202 4.11853ZM52.8329 27.2315C53.0668 27.0988 53.1094 27.1294 53.0489 27.3868C52.9983 27.6024 52.9151 27.6669 52.7842 27.5911C52.6334 27.5045 52.6566 27.3313 52.8333 27.2315H52.8329ZM52.6561 25.9437C52.6334 25.8599 52.7053 25.7893 52.8523 25.7497C53.0479 25.6975 53.0725 25.713 53.0096 25.849C52.9685 25.938 52.8806 26.0251 52.8135 26.043C52.7464 26.0609 52.676 26.0161 52.6561 25.9437ZM52.969 18.8106C52.8234 19.085 52.7554 19.1269 52.6353 19.0144C52.545 18.9297 52.7809 18.4802 52.994 18.3314C53.168 18.21 53.1547 18.4609 52.969 18.8106ZM52.5011 12.6858C52.4604 12.7569 52.4878 12.5135 52.5611 12.1454C52.6991 11.454 52.8334 11.1659 53.0068 11.1866C53.1472 11.2031 52.8986 12.2631 52.7157 12.4293C52.6381 12.4994 52.5413 12.6152 52.5011 12.6858ZM51.6494 20.178C51.9344 20.0086 51.9245 20.2298 51.6248 20.7174C51.3776 21.1204 51.1276 21.3176 51.0813 21.1462C51.0439 21.0069 51.466 20.2863 51.6489 20.178H51.6494ZM51.3157 14.4415C51.354 14.3144 51.4249 14.2001 51.4731 14.1874C51.5213 14.1746 51.5846 14.2533 51.6139 14.362C51.6432 14.4707 51.5723 14.5851 51.4565 14.6162C51.3407 14.6472 51.2774 14.5686 51.3157 14.4415ZM51.0713 28.7618C50.956 29.1995 50.7273 29.3294 50.6403 29.0065C50.6034 28.87 50.8932 28.1583 50.9962 28.131C51.1143 28.0995 51.1555 28.4431 51.0713 28.7618ZM51.1333 31.0691C51.2665 31.0673 51.4608 30.9769 51.596 30.8545C51.7241 30.7382 51.8904 30.6267 51.9656 30.6069C52.1787 30.55 52.1953 30.8192 51.9854 30.9265C51.6621 31.0913 50.8695 31.3266 50.8138 31.2744C50.7197 31.1864 50.8965 31.0734 51.1333 31.0696V31.0691ZM52.1097 27.7545C52.0507 28.0444 51.6801 28.2986 51.6234 28.0877C51.578 27.9187 51.8744 27.425 52.0492 27.3784C52.1272 27.3577 52.1849 27.3741 52.1773 27.4151C52.1698 27.456 52.1395 27.6085 52.1097 27.7545ZM52.0889 26.7081C52.0199 26.7264 51.897 26.6422 51.8753 26.5607C51.8474 26.4581 52.096 26.0463 52.2024 26.0176C52.3503 25.978 52.3858 26.3066 52.2558 26.5071C52.1887 26.6106 52.1135 26.701 52.0889 26.7076V26.7081ZM51.9065 22.5922C51.491 23.1227 51.3545 23.2159 51.2982 23.0065C51.2481 22.8201 52.0332 21.5369 52.2288 21.4847C52.3186 21.4607 52.3976 21.463 52.4047 21.4894C52.4562 21.6814 52.234 22.1733 51.9065 22.5922ZM49.6359 14.2975C49.739 14.0683 49.9493 13.871 50.2074 13.8649C50.1294 14.0504 50.0495 14.2382 49.971 14.4246C49.7442 14.9607 49.5565 15.1528 49.6175 14.7856C49.6496 14.5926 49.5461 14.4976 49.6364 14.297L49.6359 14.2975ZM50.0263 17.2568C50.1218 16.9791 50.1884 16.8948 50.2872 16.9287C50.4678 16.9904 50.4621 17.2126 50.2702 17.5496C49.9999 18.025 49.8316 17.8231 50.0263 17.2573V17.2568ZM49.0673 13.985C48.9359 14.2368 48.7809 14.5649 48.7228 14.7136C48.6169 14.9833 48.4836 15.0944 48.4439 14.9466C48.4037 14.7979 48.5489 14.3027 48.7899 13.7642C48.9232 13.4667 49.1179 12.988 49.2224 12.7009C49.3883 12.2448 49.4138 12.2142 49.4209 12.4594C49.4365 12.9706 49.3089 13.5213 49.0673 13.9854V13.985ZM47.6541 12.8049C47.4708 12.8539 47.4325 12.8233 47.3876 12.5936C47.3431 12.3662 47.372 12.3149 47.5728 12.2612C47.8649 12.1831 47.9788 12.2772 47.916 12.5446C47.8881 12.6627 47.7784 12.772 47.6541 12.8049ZM22.8178 6.3765C22.9387 6.25035 23.7569 4.82506 24.4772 3.48638L24.8284 2.83351L25.7713 2.51061C27.1925 2.02343 31.0932 0.993529 31.8428 0.907391C32.9545 0.779359 32.9914 0.791127 34.4542 1.72312C35.2038 2.20041 35.8338 2.6151 35.8546 2.64429C35.8754 2.67347 34.3748 3.11264 32.5197 3.621C30.6646 4.12936 28.5017 4.75963 27.7134 5.02181C25.5889 5.72787 22.6646 6.53748 22.8182 6.37744L22.8178 6.3765ZM29.6687 5.08442C36.3008 3.34893 36.8982 3.20537 37.0726 3.30563C37.1771 3.36541 37.2253 3.42989 37.1799 3.44872C37.0065 3.52074 25.8809 6.49747 24.1341 6.93946C23.1226 7.19552 22.2856 7.3711 22.2742 7.3292C22.1986 7.04819 22.4174 6.98182 29.6687 5.08442ZM21.8101 8.49514C21.8266 8.21883 21.7477 8.25225 24.0825 7.54008C25.768 7.02654 37.3491 4.10676 37.7835 4.08652C37.9423 4.07899 38.077 4.15854 38.1933 4.32847C38.2887 4.46779 39.0842 5.47228 39.9609 6.56054C41.5939 8.58692 43.5578 11.1311 43.5946 11.2676C43.606 11.3095 43.2964 11.1461 42.9064 10.9042C42.1781 10.4523 40.8878 9.87806 39.9704 9.59658C37.101 8.71684 33.62 8.83734 30.7392 9.58434C26.6849 10.6359 22.813 12.9941 20.5911 16.5889C20.1894 17.2385 19.8212 17.7807 19.7725 17.7934C19.7238 17.8066 19.7267 17.6677 19.7787 17.4856C20.2938 15.6776 21.7713 9.13953 21.8101 8.49467V8.49514ZM15.2876 10.1981L15.2909 9.8437L15.8056 9.70626C16.3114 9.57117 16.3227 9.57352 16.4498 9.82911C16.5207 9.9722 16.5935 10.1435 16.6115 10.2104C16.6361 10.3022 16.4848 10.3737 15.9815 10.5083C15.6171 10.6058 15.3113 10.6552 15.3018 10.619C15.2923 10.5827 15.2862 10.3935 15.2876 10.1986V10.1981ZM15.9205 11.0718C16.7538 10.8308 17.4826 10.6345 17.5393 10.6359C17.6234 10.6383 17.7364 10.9748 17.7855 11.3697C17.7903 11.4074 17.0785 11.6291 16.2041 11.8626L14.6141 12.2867L14.5097 11.8983L14.4052 11.51L15.9205 11.0718ZM10.3126 11.7557C10.4695 11.7651 10.798 12.2805 10.98 12.8025C11.0787 13.0864 11.0783 13.1885 10.9767 13.2375C10.8703 13.2888 10.8018 13.1866 10.6283 12.7183C10.5097 12.3977 10.3603 12.048 10.2961 11.9416C10.2091 11.7971 10.2133 11.7501 10.3126 11.7557ZM9.45286 11.9675C9.74448 11.8899 9.77709 11.904 9.83901 12.1337C9.87635 12.2716 9.99734 12.6213 10.1089 12.9103L10.3112 13.4361L10.0451 13.5072L9.77898 13.5783L9.56204 12.9527C9.44293 12.6086 9.29783 12.2655 9.2397 12.1902C9.15084 12.0748 9.18393 12.04 9.45286 11.9685V11.9675ZM3.51506 12.5615C3.53018 12.3756 3.61573 12.346 5.99217 11.7006C7.34582 11.333 8.54917 10.9908 8.66544 10.94C8.85071 10.8595 8.89041 10.883 8.98211 11.1264L9.08656 11.405L6.45111 12.1017C5.00152 12.4848 3.74429 12.7884 3.65732 12.7767C3.54767 12.7616 3.50372 12.6952 3.51459 12.562L3.51506 12.5615ZM8.84929 13.7962C8.5468 13.9224 8.47165 13.8334 8.20792 13.0407C7.98672 12.3747 7.98625 12.3676 8.20083 12.249C8.58651 12.0353 8.64606 12.096 8.86962 12.9282C9.07664 13.6997 9.07664 13.7016 8.84929 13.7962ZM7.97207 13.9652L7.71921 14.0325C7.46918 14.0993 7.46304 14.0918 7.17378 13.4003C7.01261 13.0153 6.90437 12.6595 6.93273 12.6086C6.96109 12.5583 7.10194 12.4994 7.24562 12.4782L7.50699 12.4396L7.73953 13.2026L7.97207 13.9657V13.9652ZM6.54942 14.4218L6.31404 14.5145L6.10088 13.7228C5.90521 12.9955 5.9019 12.9221 6.05787 12.8228C6.32822 12.6505 6.42748 12.787 6.61181 13.5825C6.78385 14.3234 6.78338 14.3295 6.54942 14.4218ZM5.70434 14.547C5.70055 14.6129 5.6169 14.6882 5.51859 14.7145C5.35505 14.7583 5.32433 14.707 5.17214 14.1408C4.9897 13.4625 5.01239 13.1523 5.24918 13.0892C5.38388 13.0534 5.42122 13.1316 5.55687 13.7378C5.64195 14.1172 5.70812 14.4811 5.70481 14.547H5.70434ZM4.50902 14.9838C4.31099 15.0365 4.30012 15.0163 4.10113 14.2438L3.89695 13.4498L4.19046 13.3716L4.48397 13.2935L4.56574 13.8136C4.61064 14.0998 4.66216 14.4679 4.68012 14.6317C4.70612 14.868 4.67067 14.9405 4.50902 14.9838ZM3.32269 13.6032C3.42006 13.5773 3.50182 13.566 3.50419 13.5783C3.50702 13.5905 3.5023 13.8108 3.49379 14.0673C3.48528 14.3243 3.51931 14.6863 3.56941 14.8722C3.64173 15.1415 3.62707 15.2191 3.49852 15.2535C3.23667 15.3232 3.20359 15.2502 3.24329 14.6863C3.26409 14.3916 3.25038 14.0381 3.21351 13.9007C3.16199 13.7091 3.18752 13.6395 3.32269 13.6032ZM2.5296 15.0718C2.56316 14.916 2.59341 14.7075 2.59672 14.6086C2.60002 14.5098 2.62933 14.4439 2.66241 14.4627C2.69502 14.4815 2.71015 14.7169 2.6955 14.9861C2.68085 15.2549 2.63358 15.4846 2.59057 15.4959C2.47855 15.526 2.46012 15.3961 2.53007 15.0718H2.5296ZM2.07019 25.6175C2.32022 25.6589 2.36039 25.7318 2.39017 26.1922C2.40435 26.4087 2.36134 26.4939 2.22049 26.5292C1.88492 26.6139 1.67979 26.4996 1.59377 26.1795C1.4931 25.8057 1.70437 25.5567 2.07019 25.6179V25.6175ZM2.37788 27.1868C2.2498 27.2795 2.22522 27.2856 1.78708 27.3341C1.44016 27.3727 0.898513 27.0395 0.725999 26.6817C0.302039 25.801 1.07717 24.5188 1.78803 24.926C1.97519 25.0333 1.96527 25.046 1.57486 25.2004C1.27663 25.3181 1.13625 25.4325 1.05732 25.6212C0.716073 26.4393 1.36785 27.2301 2.1997 27.0084C2.4795 26.9335 2.58301 27.0376 2.37741 27.1868H2.37788ZM2.76072 23.7375C2.58537 23.688 2.53905 23.4583 2.48139 23.2931C2.20631 22.5028 2.01253 21.6796 1.79559 20.8723C1.52382 19.8612 0.574753 17.5407 1.7332 16.7682C2.08484 16.5338 2.63311 16.4256 3.03107 16.2956C4.56716 15.7943 6.13586 15.3862 7.70361 14.9956C9.52895 14.5409 12.9835 13.6912 15.506 13.0511C18.3702 12.3238 20.101 11.919 20.1152 11.9722C20.1724 12.185 20.0249 12.5634 19.9847 12.771C19.8831 13.2954 19.7735 13.8179 19.661 14.3399C19.4067 15.5194 19.1066 16.691 18.8381 17.8683C18.7162 18.4025 18.7077 19.3152 18.1651 19.6188C17.6598 19.9012 17.0421 19.9954 16.4919 20.1662C15.8865 20.354 15.2824 20.5489 14.6618 20.6821C13.5998 20.9104 12.551 21.2018 11.5041 21.4894C11.1889 21.576 10.4525 21.7676 9.86737 21.9154C8.77131 22.1926 7.78018 22.4327 6.69027 22.733C5.69677 23.0069 4.71699 23.3981 3.69986 23.5704C3.64929 23.5788 3.58548 23.5948 3.51459 23.6141C3.26598 23.681 2.92898 23.7855 2.76072 23.7379V23.7375ZM20.2447 35.9875C20.0292 36.293 19.7848 36.6818 19.7021 36.8517C19.6194 37.0217 19.5064 37.1921 19.4516 37.2302C19.0777 37.4881 19.1415 36.9864 19.5466 36.4837C19.7342 36.2507 19.9635 35.9358 20.0556 35.7837C20.2017 35.5427 20.2036 35.5234 20.0679 35.635C19.8207 35.8388 19.885 35.6816 20.1554 35.4208C20.4262 35.1596 20.6299 35.1106 20.6341 35.3055C20.6356 35.3751 20.4607 35.682 20.2447 35.9875ZM20.4768 37.2038C20.4441 37.2297 20.3307 37.4547 20.2244 37.7032C20.006 38.2144 19.8945 38.2926 19.8136 37.9923C19.7517 37.763 20.1365 36.9958 20.3402 36.9417C20.472 36.9063 20.5822 37.1191 20.4763 37.2038H20.4768ZM19.3462 39.4053C18.8858 39.5282 18.8603 39.3121 19.3159 39.1483C19.557 39.0617 19.6421 39.0673 19.67 39.1718C19.6974 39.274 19.6142 39.3338 19.3462 39.4053ZM19.9105 33.1181C19.6024 33.3285 19.3703 33.281 19.3396 33.0004C19.3193 32.8155 19.6851 32.5514 19.8878 32.6046C20.0953 32.6587 20.1095 32.9821 19.9105 33.1177V33.1181ZM19.3486 33.9018C19.367 34.0675 19.2781 34.2144 19.1515 34.228C19.0248 34.2417 18.9104 34.1574 18.8977 34.0402C18.8849 33.923 18.9738 33.7762 19.0948 33.714C19.2451 33.6368 19.3259 33.6971 19.3486 33.9018ZM18.6325 35.1911C18.7663 35.1765 18.8575 35.2495 18.8348 35.353C18.771 35.6472 18.4453 35.7301 18.4156 35.4599C18.4009 35.3267 18.4983 35.2057 18.632 35.1911H18.6325ZM18.002 32.751C18.002 32.5434 18.2601 32.2511 18.4435 32.2511C18.5744 32.2511 18.5753 32.2958 18.4543 32.7293C18.3277 33.1836 18.002 33.1991 18.002 32.751ZM16.0301 31.0781C15.8964 31.281 15.7158 31.3921 15.7073 31.2767C15.6998 31.1713 16.1384 30.3123 16.2802 30.1555C16.3671 30.0595 16.4342 29.9272 16.4295 29.8623C16.421 29.7422 16.681 29.4226 16.7939 29.4146C16.8275 29.4123 16.8582 29.4495 16.8615 29.4979C16.8696 29.6114 16.3676 30.565 16.0297 31.0781H16.0301ZM16.4224 39.2862C16.4054 39.4472 16.127 39.5635 16.0131 39.4566C15.9101 39.3601 16.1237 39.1041 16.2925 39.1215C16.3756 39.13 16.4314 39.2006 16.4224 39.2858V39.2862ZM16.6219 28.1122C16.7958 28.0656 16.8128 28.219 16.6621 28.4784C16.5198 28.7236 16.5051 28.7354 16.4049 28.6775C16.3014 28.6182 16.481 28.1494 16.6219 28.1117V28.1122ZM16.7438 26.0458C16.7401 26.0557 16.7358 26.0665 16.732 26.0773C16.7008 26.163 16.6635 26.2604 16.5652 26.2868C16.4371 26.3212 16.3898 26.2906 16.4012 26.1814C16.4158 26.0406 16.4144 25.9469 16.5269 25.8415C16.5822 25.7897 16.7377 25.5892 16.8237 25.601C16.9064 25.6123 16.9201 25.721 16.8781 25.7888C16.8161 25.8891 16.7831 25.9432 16.7438 26.0458ZM16.6772 21.8782C16.4309 22.1959 16.3946 22.1441 16.5604 21.712C16.6243 21.5459 16.6748 21.3406 16.6725 21.2569C16.6701 21.1651 16.7145 21.0775 16.7835 21.0375C16.9409 20.9471 17.2529 20.8662 17.2652 20.9123C17.2779 20.9594 16.8696 21.6297 16.6772 21.8782ZM16.966 24.5993C16.9849 24.5042 17.0331 24.2534 17.0737 24.0425C17.1139 23.8311 17.2283 23.5035 17.3271 23.3148C17.501 22.9829 17.5071 22.9792 17.5114 23.206C17.5138 23.335 17.5209 23.5515 17.527 23.6866C17.5331 23.8222 17.4098 24.1503 17.2519 24.4162C16.9698 24.893 16.8989 24.9382 16.966 24.5998V24.5993ZM17.5615 27.8354C17.6187 27.8966 17.5899 28.1014 17.4972 28.2906C17.3403 28.6116 17.3219 28.6144 17.225 28.3362C17.1177 28.027 17.3776 27.6396 17.5615 27.8354ZM17.5336 39.2307C17.6589 39.1963 17.691 39.2382 17.6981 39.4449C17.7028 39.5861 17.6574 39.7678 17.5974 39.8487C17.4637 40.0285 17.2084 40.1057 17.0959 40.0003C16.9508 39.8643 17.2699 39.3036 17.5336 39.2307ZM13.6334 37.0137C12.8937 36.9012 12.3416 36.3434 11.9465 35.3088C11.6785 34.6065 11.3472 32.6545 11.3434 31.7554C11.342 31.3553 11.3349 30.7834 11.3283 30.4845C11.3028 29.3563 11.5273 29.0004 12.189 29.12C12.4149 29.1609 12.6569 29.2857 12.7717 29.4203C13.0312 29.7243 13.2676 30.0421 13.5048 30.3659C13.5861 30.4765 13.6669 30.5871 13.7407 30.7029C14.5702 32.0124 15.3968 33.6434 15.3472 35.2353C15.3283 35.8411 15.0107 36.5213 14.486 36.8419C14.2431 36.9906 13.9557 37.0617 13.6329 37.0127L13.6334 37.0137ZM14.0852 38.4488C14.0049 38.5242 13.8664 38.6032 13.7775 38.6254C13.6376 38.6602 13.6376 38.6352 13.7785 38.4366C13.9505 38.1937 14.1708 38.0864 14.2086 38.2271C14.2213 38.2737 14.1656 38.3735 14.0852 38.4488ZM13.5039 39.771C13.3673 39.9815 13.2212 40.0464 13.113 39.9447C13.0402 39.8765 13.3451 39.4039 13.4859 39.3662C13.6197 39.3305 13.6305 39.5757 13.5034 39.771H13.5039ZM12.4296 39.8996C12.3015 40.3641 12.0396 40.5491 11.8596 40.3025C11.7915 40.2093 11.8487 40.0403 12.0529 39.7325C12.4981 39.0603 12.6437 39.1248 12.4296 39.9V39.8996ZM8.29347 24.3103C8.14364 24.4449 7.99854 24.5748 7.97065 24.5993C7.94277 24.6238 7.88274 24.6087 7.8369 24.5659C7.65162 24.3922 8.40927 23.4932 8.63282 23.6217C8.74862 23.688 8.56004 24.0703 8.293 24.3103H8.29347ZM8.9495 30.2049C9.15368 30.1503 9.04261 30.7138 9.02606 30.7858C8.98683 30.9552 8.9027 31.0983 8.84835 31.2598C8.82708 31.3233 8.82472 31.4099 8.80014 31.4805C8.78123 31.5342 8.74909 31.5789 8.68482 31.5959C8.37618 31.6778 8.57185 31.1063 8.60447 30.9689C8.64228 30.8098 8.75807 30.2562 8.94997 30.2049H8.9495ZM8.61534 40.9596C8.7283 40.7346 8.82755 40.4748 8.83559 40.382C8.85024 40.2154 9.19291 40.0262 9.31437 40.1867C9.39189 40.2888 9.2397 40.4884 9.20189 40.5896C9.14091 40.7543 9.0686 40.9149 8.96982 41.0612C8.50474 41.7494 8.25424 41.6779 8.61534 40.96V40.9596ZM9.2742 32.293C9.20945 32.2035 9.40512 31.7978 9.65137 31.5116C9.7511 31.3958 9.93212 31.2419 9.8806 31.506C9.84326 31.6985 9.70478 31.9927 9.58851 32.1541C9.41505 32.3946 9.364 32.4172 9.2742 32.2934V32.293ZM9.67595 35.8284C9.56677 36.0313 9.48405 36.1316 9.49256 36.0516C9.5006 35.9715 9.51336 35.8331 9.52045 35.7442C9.53368 35.5837 9.73408 35.3794 9.82625 35.4326C9.85271 35.4476 9.78465 35.626 9.67595 35.8284ZM9.78938 37.1036C9.97938 37.0527 9.99734 37.2726 9.8253 37.5489C9.66933 37.7997 9.47933 37.9118 9.44246 37.7743C9.40465 37.6345 9.66177 37.1375 9.78938 37.1031V37.1036ZM9.9307 28.6959C9.85271 28.4751 10.1117 28.0322 10.2734 28.1098C10.3532 28.148 10.409 28.2962 10.3972 28.4393C10.374 28.7241 10.011 28.9237 9.9307 28.6959ZM10.3173 35.884C10.3343 35.7211 10.6709 35.3229 10.7517 35.3695C10.7819 35.3869 10.7673 35.5215 10.7186 35.6689C10.6245 35.9532 10.2913 36.132 10.3173 35.884ZM10.901 41.0876C11.0239 41.1257 11.0357 41.1629 10.971 41.3032C10.8538 41.5569 10.3873 41.62 10.3258 41.3903C10.2724 41.1912 10.6293 41.0029 10.901 41.0876ZM10.1727 26.8629C9.91085 26.6808 9.83948 26.5631 9.71848 26.1141C9.41316 24.9782 10.0867 24.2825 11.3085 24.4722C11.792 24.5475 12.4366 24.9566 12.5123 25.2362C12.5898 25.5252 12.3771 26.0773 12.0273 26.4939C11.8222 26.7382 11.5982 26.8949 11.3113 26.9943C10.8032 27.1703 10.5773 27.1439 10.1727 26.8629ZM12.293 22.8681C12.6664 22.2119 12.6905 22.1841 12.8157 22.2665C12.9268 22.3399 12.923 22.3927 12.7859 22.6492C12.6985 22.813 12.603 23.0178 12.5737 23.1048C12.5444 23.1915 12.4763 23.2611 12.4229 23.2597C12.2944 23.2559 12.2126 23.0093 12.293 22.8685V22.8681ZM13.4996 22.3244C13.4958 22.4157 13.4524 22.5504 13.4027 22.6233C13.2846 22.7975 13.0955 22.6134 13.1489 22.3762C13.2 22.1503 13.5086 22.1041 13.4996 22.3239V22.3244ZM14.6893 23.632C14.8599 23.3101 14.9771 23.2846 14.9587 23.5732C14.9525 23.6697 14.8684 23.8457 14.7715 23.9648C14.5286 24.2632 14.4733 24.0397 14.6897 23.632H14.6893ZM7.32833 24.3419C7.26122 24.4454 7.18607 24.5358 7.16149 24.5424C7.09249 24.5607 6.9696 24.4765 6.94786 24.395C6.91997 24.2924 7.16858 23.8806 7.27492 23.8518C7.42286 23.8123 7.45831 24.1409 7.32833 24.3414V24.3419ZM3.90971 25.2536C3.81944 25.4188 3.71593 25.5629 3.68001 25.5742C3.51506 25.6255 3.74429 24.7838 3.79014 24.7099C3.92862 24.4873 3.95792 24.4732 4.04158 24.5876C4.15265 24.7401 4.13138 24.8474 3.90971 25.2531V25.2536ZM4.74724 30.5391C4.69194 30.3334 5.02279 29.7069 5.21421 29.6556C5.31677 29.6283 5.35269 29.689 5.36971 29.9206C5.38199 30.0858 5.38814 30.2313 5.38341 30.244C5.37869 30.2567 5.24398 30.3673 5.0847 30.4902C4.80726 30.7039 4.79261 30.7058 4.74771 30.5391H4.74724ZM5.42548 31.3567C5.16269 31.5747 5.08281 31.5836 5.01286 31.4019C4.95142 31.2424 5.22082 30.9044 5.40988 30.9044C5.63911 30.9044 5.64856 31.1722 5.42548 31.3567ZM5.61737 27.7187C5.59185 27.9903 5.44013 28.0919 5.31488 27.9206C5.21704 27.7865 5.32528 27.5939 5.52993 27.5365C5.60366 27.5158 5.63108 27.5732 5.61737 27.7192V27.7187ZM6.22944 33.0409C6.02762 33.1868 6.00824 33.1755 5.99926 32.9016C5.99028 32.6173 6.37785 31.9319 6.46954 32.0703C6.55698 32.2021 6.37596 32.935 6.22944 33.0409ZM6.39581 36.639C6.34713 36.5933 6.34618 36.4742 6.39392 36.374C6.44166 36.2737 6.50688 36.0341 6.53949 35.8411C6.57211 35.6482 6.65293 35.4067 6.7191 35.305C6.85238 35.0998 7.26736 34.7755 7.28958 34.8593C7.29761 34.8884 7.17851 35.2283 7.02537 35.6147C6.68034 36.4846 6.51586 36.752 6.39581 36.6395V36.639ZM7.24893 30.1828C7.31793 30.2224 7.32881 30.3043 7.28012 30.4106C7.1889 30.6083 7.09154 30.6455 6.96865 30.5307C6.8486 30.4182 7.10477 30.1 7.24893 30.1828ZM7.25224 39.6289L7.23948 40.0431L7.09012 39.7376C6.86798 39.2834 6.94408 38.7746 7.18465 39.1045C7.22861 39.1648 7.25885 39.4006 7.25224 39.6289ZM7.05231 37.3587C6.80039 37.7418 6.57683 37.8214 6.57683 37.5281C6.57683 37.3088 7.25082 36.2968 7.36284 36.4088C7.40632 36.4521 7.17992 37.1638 7.05184 37.3582L7.05231 37.3587ZM7.39403 26.1098C7.32739 26.196 7.26169 26.2553 7.21254 26.3795C7.11564 26.6238 7.05231 26.8804 6.95211 27.1242C6.77251 27.5619 6.59385 27.9286 6.55604 27.939C6.40243 27.9799 6.56596 27.5892 6.57636 27.529C6.62504 27.2442 6.86751 25.5982 7.38741 25.8975C7.52637 25.9775 7.45595 26.0298 7.39403 26.1103V26.1098ZM7.5363 41.9306C7.48714 41.7489 7.80003 40.8984 7.93284 40.8532C7.96876 40.841 8.0165 40.9003 8.03919 40.985C8.06187 41.0697 7.96971 41.3597 7.83406 41.6289C7.62704 42.0398 7.57931 42.0888 7.53677 41.9306H7.5363ZM24.1723 41.1267C23.6038 41.2392 19.8916 42.198 15.9233 43.258C14.3527 43.6774 12.7812 44.094 11.2078 44.5026C10.6633 44.6438 10.1202 44.7968 9.57196 44.9224C9.05962 45.0401 8.40974 45.1225 8.12757 44.6165C7.94844 44.2955 7.60814 43.6675 7.76033 43.2882C7.85344 43.0552 8.3913 43.0029 8.60399 42.9657C8.96037 42.9026 12.8762 41.9109 17.3053 40.7619C21.7349 39.6124 25.4168 38.6856 25.4872 38.7021C25.6281 38.735 27.902 40.0003 28.0215 40.1123C28.108 40.1933 25.7439 40.816 24.1728 41.1262L24.1723 41.1267ZM21.7746 37.8313C22.4255 37.1422 22.5398 37.4138 21.9476 38.2413C21.6229 38.6945 21.4632 38.8066 21.3686 38.6479C21.2788 38.4978 21.4277 38.1989 21.7746 37.8313ZM40.8051 38.278C40.2332 38.5256 39.6618 38.767 39.0804 38.9854C38.6654 39.1412 38.2457 39.2853 37.8175 39.4114C35.7161 40.0295 33.4408 40.3302 31.2728 39.8939C26.7775 38.9897 23.0952 36.133 21.0033 32.0496C20.2097 30.5005 19.6165 28.8211 19.3528 27.0988C18.9265 24.3169 19.0834 22.1978 19.8505 20.3809C20.0519 19.9041 20.2905 19.303 20.3813 19.0455C20.5982 18.4293 21.3965 17.0972 22.2955 15.8518C24.1095 13.3387 26.8201 11.8254 29.7358 10.9108C32.7101 9.97785 35.9251 9.32452 38.9982 10.1925C40.2965 10.5592 41.3864 11.1669 42.5189 11.8889C45.2541 13.6338 47.104 16.322 48.2383 19.3434C48.5829 20.2618 48.8665 21.2051 49.0919 22.1592C49.3027 23.0512 49.3249 23.9135 49.4483 24.8144C49.47 24.9749 49.4989 25.135 49.5031 25.2964C49.506 25.3939 49.4998 25.4908 49.4937 25.5878C49.4625 26.082 49.4157 26.5673 49.3618 27.0578C49.134 29.127 48.8121 30.2049 47.9136 31.9037C46.3733 34.816 43.8153 36.9746 40.8051 38.2775V38.278ZM58.8539 31.6839C58.7508 31.7799 57.3537 32.1871 54.5665 32.9331C52.2926 33.5418 49.7257 34.2652 48.8627 34.5415C47.9996 34.8174 47.1914 35.0998 47.0671 35.169C46.7008 35.3728 46.7736 35.1742 47.2325 34.718C47.4674 34.4846 47.9004 33.9386 48.1944 33.5046L48.7285 32.7157L50.4026 32.2111C51.3233 31.9338 53.5943 31.2913 55.4499 30.7839L58.8231 29.8609L58.9602 30.3697C59.1176 30.9543 59.0755 31.4777 58.8548 31.6839H58.8539ZM55.0822 27.8985C55.5742 27.8161 55.7184 28.1654 55.3851 28.6314C55.1918 28.9016 54.9375 28.8305 54.7948 28.4652C54.6644 28.1315 54.7551 27.9526 55.0822 27.898V27.8985ZM39.2558 16.3502C37.8298 15.5599 36.7749 15.3185 34.6891 15.3062C31.1769 15.2855 27.7488 16.9913 26.0114 20.082C25.2013 21.5233 24.7324 23.046 24.6024 24.6596C24.4885 26.074 24.9787 28.0002 25.5704 29.2734C26.2628 30.7627 27.4104 32.028 28.8075 32.8945C30.8891 34.1852 33.9537 34.8089 36.2838 34.4154C36.6576 34.3528 37.1185 34.2455 37.3085 34.1777C39.1598 33.5196 40.8916 32.4064 42.1809 30.9204C45.8245 26.7213 44.0493 19.0078 39.2553 16.3502H39.2558ZM34.6002 18.9932C34.7543 18.4472 35.1305 18.0895 35.2922 18.3352C35.433 18.5494 35.2166 19.174 34.9576 19.3034C34.6981 19.4324 34.5199 19.278 34.6002 18.9932ZM33.5718 18.9909C33.7769 19.1312 33.8752 19.5204 33.7656 19.7581C33.723 19.8509 33.5737 19.9568 33.4338 19.9944C32.8794 20.1422 32.8864 18.523 33.5718 18.9909ZM33.2239 21.792C32.9157 21.729 33.0311 21.0747 33.3633 21.0022C33.4465 20.9838 33.5359 20.9824 33.5614 20.9984C33.7788 21.1373 33.4787 21.8443 33.2239 21.792ZM29.5576 24.9406C29.2433 25.882 29.0491 26.918 29.0372 27.7206C29.0325 28.0331 29.0079 28.3278 28.9829 28.3753C28.8761 28.5777 28.1539 27.7549 28.0244 27.2833C27.7729 26.3659 28.229 25.4899 28.8265 24.8102C28.9456 24.6746 29.5472 23.9709 29.7708 24.1004C29.802 24.1183 29.706 24.4962 29.5576 24.9406ZM30.3375 20.5668C29.3648 21.1557 28.316 21.8768 27.771 22.9067C27.3513 23.6993 27.2975 23.7549 27.1656 23.528C26.6017 22.5555 27.3674 21.2159 28.1203 20.5786C28.5934 20.1785 29.1786 19.921 29.7902 19.824C30.1456 19.768 30.5568 19.7798 30.9113 19.8316C30.9992 19.8443 31.2856 19.8626 31.2908 19.9954C31.296 20.1159 30.4675 20.4877 30.337 20.5668H30.3375ZM41.5131 27.5746C40.9303 29.0908 39.8073 30.269 38.4376 31.1247C38.4159 31.1383 38.3937 31.152 38.3715 31.1656C37.8652 31.4763 37.1851 31.6439 36.6085 31.7809C35.9175 31.9447 35.1991 32.0073 34.493 31.9141C34.0156 31.8515 33.5387 31.7545 33.0788 31.6119C32.8245 31.5328 32.4133 31.4363 32.2498 31.2019C31.9823 30.8192 32.1912 30.6879 33.4976 30.4153C33.5741 30.3993 33.6502 30.3833 33.7268 30.3664C35.0096 30.0882 36.3537 29.8001 37.4314 29.0089C39.7015 27.3431 40.6491 24.1832 39.3872 21.6348C39.2458 21.3496 39.1792 21.1119 39.1957 20.9523C39.2198 20.7184 39.234 20.7099 39.5039 20.7687C40.7928 21.0497 41.5816 22.388 41.8647 23.5624C42.1847 24.8888 41.9943 26.323 41.5131 27.5751V27.5746ZM47.7576 21.9027C47.3275 20.0293 46.9674 19.2258 45.5688 17.0233C44.8637 15.913 43.3919 14.2373 42.7037 13.7623C41.1137 12.6642 39.0993 11.7105 37.1998 11.3236C36.4511 11.1711 35.6812 11.1235 34.9198 11.1819C33.8993 11.2601 32.7782 11.4455 31.7894 11.7058C30.9973 11.9143 30.2004 12.2123 29.4508 12.4895C28.0608 13.0035 26.7445 13.8042 25.5676 14.692C22.9066 16.6995 21.0666 19.7346 20.5023 23.0248C20.213 24.7123 20.5911 26.5094 20.9848 28.1522C21.4131 29.9399 22.1182 31.6862 23.21 33.1774C23.6553 33.7856 24.0603 34.4662 24.6119 34.9849C24.8496 35.2085 25.1016 35.4467 25.1715 35.5145C26.5185 36.8164 28.9895 37.9894 31.4666 38.5016C32.5348 38.7223 32.9176 38.759 33.75 38.719C34.1356 38.7007 34.6409 38.6795 34.8734 38.6715C35.1055 38.664 35.8055 38.5731 36.4289 38.47C37.0518 38.3669 37.7575 38.2177 37.9966 38.1386C38.2358 38.0596 38.7637 37.8849 39.1702 37.7503C39.917 37.5032 41.6232 36.615 42.2013 36.1721C42.3738 36.0398 42.6389 35.8374 42.7902 35.7221C42.9414 35.6067 43.2373 35.3601 43.4476 35.1742C43.658 34.9878 44.0346 34.6813 44.2847 34.4926C45.0693 33.9004 45.6998 33.0842 46.5548 31.5544C47.043 30.6808 47.5171 29.7775 47.7912 28.8112C48.4193 26.5989 48.2672 24.1192 47.7586 21.9031L47.7576 21.9027ZM46.9934 28.2059C46.2915 31.5945 43.5743 34.3867 40.7432 36.2083C40.41 36.4225 39.6963 36.7778 39.1565 36.9972C35.2071 38.6056 29.5425 38.4898 26.3333 35.3257C24.3869 33.4067 22.7672 31.6156 21.9268 28.9439C21.1484 26.4694 21.0832 23.7441 21.9112 21.2729C22.3853 19.8584 23.3646 18.1968 24.4441 16.9753C25.1351 16.1935 25.9159 15.4921 26.7709 14.8925C31.7814 11.3768 38.9717 10.9047 43.3862 15.5948C43.7374 15.9676 44.1027 16.3432 44.1987 16.4293C44.2946 16.5155 44.5092 16.7762 44.676 17.0092C46.9419 20.1709 47.7751 24.4327 46.9934 28.2063V28.2059ZM14.6496 34.7275C14.3863 33.9659 14.0337 33.8016 13.311 34.1028C12.7699 34.3288 12.4489 34.8531 12.5718 35.3107C12.6593 35.6364 13.0742 36.1476 13.3106 36.2215C13.5157 36.2855 13.9959 36.1325 14.2828 35.9118C14.6954 35.5945 14.8155 35.2071 14.6496 34.727V34.7275ZM13.8224 35.635C13.7307 35.7927 13.2746 35.827 13.0582 35.6924C12.7467 35.4985 12.6333 35.3017 12.6909 35.0565C12.7382 34.8555 12.9783 34.7096 13.018 34.8578C13.0293 34.8993 13.2236 35.0758 13.4505 35.2495C13.6773 35.4236 13.8446 35.5973 13.8224 35.635ZM14.0942 35.1454C14.0356 35.2278 13.9775 35.2579 13.9652 35.2123C13.9529 35.1666 13.7534 35 13.5218 34.8418L13.1007 34.5542L13.5388 34.4667C13.9708 34.3801 13.9789 34.3834 14.0885 34.6874C14.1608 34.887 14.1623 35.0485 14.0933 35.1454H14.0942ZM12.6474 31.9946C12.3667 31.8929 12.319 31.7719 12.508 31.6429C12.6881 31.5201 12.9362 31.0348 12.8956 30.8846C12.8478 30.7081 13.1111 30.7735 13.2831 30.9816C13.4864 31.2273 13.5015 31.5464 13.3219 31.7964C13.1404 32.0487 12.9504 32.1042 12.6474 31.9946ZM38.0898 7.32355C38.3927 7.07879 38.4371 6.98747 38.4182 6.65186C38.3908 6.17315 38.0855 5.86437 37.585 5.8093C37.0769 5.75329 36.807 6.00935 36.73 6.61938C36.6818 7.00112 36.7144 7.13904 36.8954 7.31885C37.2333 7.65493 37.6776 7.65681 38.0898 7.32355ZM37.1086 6.42781C37.1431 6.09737 37.3992 6.03524 37.7041 6.28236C37.9829 6.50877 37.9924 6.70882 37.7348 6.91687C37.3472 7.22988 37.049 6.99689 37.1086 6.42781ZM12.0514 25.7756C12.137 25.3854 12.0344 25.1063 11.7499 24.9547C11.2475 24.6873 10.4402 24.773 10.1434 25.1251C9.94819 25.3567 9.91368 25.9065 10.0749 26.2157C10.2337 26.5212 10.6089 26.718 10.9596 26.6798C11.5953 26.6111 11.9286 26.3353 12.0514 25.7756ZM11.4521 25.8199C11.4044 26.1042 11.1931 26.1785 10.8434 26.0336C10.6255 25.9437 10.5853 25.8792 10.5626 25.5869C10.5328 25.1981 10.6694 25.055 11.0145 25.1124C11.3023 25.1604 11.507 25.4918 11.4521 25.8199ZM23.4421 25.9945C23.4563 26.9881 23.4303 27.8392 23.3882 27.8848C23.3386 27.931 23.2048 27.7417 23.0796 27.4541C22.9014 27.0531 22.8395 26.6902 22.7856 25.7841C22.6396 23.279 23.1193 21.3213 24.395 19.1848C25.5222 17.3058 28.2342 15.0775 30.2633 14.3667C31.0379 14.0927 32.9091 13.8423 33.4891 13.9275C33.7334 13.9675 33.9107 14.0203 33.8828 14.0509C33.7916 14.1568 33.0646 14.3498 32.0423 14.5352C30.0208 14.9113 28.6431 15.6517 26.4883 17.5218C25.5898 18.3084 25.3932 18.5282 25.0581 19.1646C23.6728 21.8052 23.3953 22.958 23.4412 25.994L23.4421 25.9945ZM13.6093 18.0321C13.8243 18.1559 13.969 18.161 14.3499 18.0594C14.7587 17.9502 14.8476 17.8885 15.0031 17.6066C15.3609 16.9579 14.9298 15.9798 14.2568 15.9115C13.7761 15.8626 13.036 16.4858 12.9854 16.9824C12.9523 17.3058 13.2671 17.8353 13.6093 18.0321ZM14.7909 16.8049C14.8613 16.8454 14.8381 17.0361 14.7389 17.229C14.5408 17.6136 14.0077 17.841 14.0257 17.5331C14.0408 17.2742 14.6306 16.7132 14.7909 16.8049ZM30.7983 35.9541C29.7037 35.667 28.6946 35.0772 27.7498 34.469C27.4851 34.2986 27.2251 34.1203 26.9789 33.924C26.2907 33.3751 25.3525 32.3222 25.3941 32.083C25.4296 31.8783 25.492 31.9155 25.8918 32.3443C26.3101 32.7971 28.0849 34.1047 29.2235 34.6832C29.6947 34.92 30.5275 35.3295 31.314 35.5559C32.0347 35.7658 31.3617 36.1014 30.7978 35.9536L30.7983 35.9541ZM14.2781 18.9433C15.2791 18.9626 15.4105 18.9212 15.8761 18.4388C16.3884 17.9078 16.4815 17.5162 16.2698 16.7828C16.1478 16.3606 16.0018 15.7788 15.5981 15.5345C14.7086 14.9965 13.4004 14.9824 12.5794 15.6588C12.2778 15.9073 11.9801 16.4288 11.947 16.8186C11.9078 17.2789 12.1649 17.8984 12.4352 18.2655C12.8946 18.8897 13.5563 18.9288 14.2785 18.9429L14.2781 18.9433ZM12.3861 16.8426C12.4395 16.3192 12.8601 15.9308 13.321 15.728C13.5568 15.6244 13.8135 15.5609 14.071 15.5486C14.7257 15.5166 15.3944 15.8913 15.5707 16.539C15.7475 17.189 15.6577 17.7661 15.3278 18.0933C15.2044 18.2156 15.0433 18.3281 14.9691 18.3432C13.6991 18.6035 13.537 18.6077 13.1513 18.3936C12.8223 18.2109 12.7387 18.1055 12.5628 17.6517C12.4385 17.3312 12.3691 17.0121 12.3865 16.8426H12.3861Z" fill="white"/>
</g>
<defs>
<clipPath id="clip0_512_4">
<rect width="60" height="46" fill="white"/>
</clipPath>
</defs>
</svg>
