<?xml version="1.0" encoding="UTF-8"?>
<svg id="_レイヤー_1" data-name="レイヤー_1" xmlns="http://www.w3.org/2000/svg" viewBox="0 0 204.75 49.25">
  <defs>
    <style>
      .cls-1 {
        fill: none;
        stroke: #202020;
        stroke-miterlimit: 10;
        stroke-width: .5px;
      }

      .cls-2 {
        fill: #202020;
      }
    </style>
  </defs>
  <g>
    <path class="cls-2" d="M39.92,18.98c-.24,1.74-.68,3.17-1.39,4.28-.71,1.11-1.6,1.97-2.69,2.59-1.09.62-2.32,1.05-3.69,1.27-1.37.23-2.77.34-4.21.35-.72,0-1.44-.04-2.16-.12-.72-.08-1.43-.18-2.13-.28.09,4.04.67,8.06,1.74,11.99.11.39.36.66.74.79.38.13.79.2,1.22.2.43,0,.77,0,1.04,0,.16,0,.32,0,.49-.02.17-.01.33-.02.49-.02.24,0,.39.1.45.31.1.34.15.57.13.69-.02.12-.21.18-.58.18-.91,0-1.81-.03-2.71-.08-.9-.05-1.78-.08-2.66-.08-.91,0-1.81.03-2.71.1-.9.07-1.8.1-2.71.1-.27,0-.45-.17-.56-.51-.05-.16-.07-.3-.05-.43.01-.13.13-.2.34-.2.32,0,.64,0,.97.02.32.01.65.02.97.02.32,0,.58-.08.79-.24.21-.16.28-.41.21-.75-.08-.47-.18-.95-.31-1.44-.13-.49-.25-.97-.35-1.45-.2-.96-.38-1.92-.52-2.9-.15-.98-.26-1.95-.35-2.92-.21-2.36-.26-4.72-.14-7.08.08-1.59.23-3.17.45-4.74.22-1.57.52-3.12.89-4.65.12-.48-.04-.76-.48-.85-.44-.09-.84-.14-1.18-.14-.24,0-.48,0-.73.02-.24.01-.47.02-.69.02-.19,0-.26-.08-.23-.26.03-.17.06-.31.09-.41.03-.1.08-.2.16-.3.08-.09.17-.14.28-.14.88,0,1.75.03,2.62.08.86.05,1.75.08,2.66.08,1.39,0,2.78-.03,4.18-.08,1.4-.05,2.8-.08,4.18-.08,1.12,0,2.21.12,3.28.35,1.07.24,2,.63,2.8,1.18.8.55,1.39,1.28,1.77,2.18.38.9.46,2.02.27,3.36ZM35.5,19.1c.3-2.14-.02-3.69-1.12-4.66-1.09-.96-2.6-1.44-4.58-1.44-.53,0-1.08,0-1.64.02-.56.01-1.13.02-1.69.02-.27,0-.55.08-.86.24-.31.16-.5.38-.57.67-.92,3.75-1.4,7.58-1.44,11.41.58.43,1.3.69,2.16.77.85.08,1.61.12,2.28.12,2.3,0,4.02-.62,5.24-1.86,1.23-1.24,1.91-3.01,2.22-5.29Z"/>
    <path class="cls-2" d="M68.26,40.82c.04.13,0,.23-.11.29-.11.07-.24.1-.37.1-.67,0-1.35-.02-2.04-.06-.69-.04-1.39-.06-2.08-.06-.77,0-1.55.03-2.31.08-.77.05-1.54.08-2.31.08-.13,0-.25-.08-.34-.25-.09-.17-.16-.31-.19-.41-.06-.18.01-.27.2-.27.29,0,.58,0,.87.02.28.01.56.02.83.02.35,0,.59-.11.72-.33.13-.22.17-.49.11-.81-.13-.66-.27-1.32-.44-1.98-.17-.66-.31-1.31-.43-1.95-.15-.8-.28-1.59-.39-2.39-.11-.79-.2-1.59-.28-2.4-.07-.81-.13-1.62-.16-2.43-.04-.81-.08-1.62-.13-2.43-.03-.35-.05-.69-.08-1.03-.03-.34-.09-.67-.18-.99-.23-.73-.63-1.29-1.2-1.68-.57-.39-1.24-.59-2.01-.59-.91,0-1.82.24-2.74.71-.92.47-1.69,1.06-2.3,1.76-.67.76-1.15,1.42-1.44,1.98-.3.57-.47,1.16-.51,1.78-.05.62-.04,1.43.04,2.43.19,2.37.56,4.73,1.09,7.06.07.29.16.7.28,1.23.12.53.32,1,.58,1.42.27.42.63.63,1.08.63.27,0,.52-.01.75-.04.23-.03.48-.04.75-.04.24,0,.4.13.48.39.04.13.06.26.06.37,0,.12-.08.18-.24.18-.91,0-1.84-.02-2.8-.06-.96-.04-1.91-.06-2.84-.06-.85,0-1.71.04-2.56.12-.11,0-.2,0-.27.02-.08.01-.17.02-.27.02-.13,0-.26-.07-.37-.22-.11-.14-.18-.27-.22-.37-.09-.29.02-.43.31-.43.16,0,.32,0,.49.02.16.01.34.02.53.02.37,0,.75-.06,1.13-.18.38-.12.51-.41.41-.88-.19-.87-.38-1.74-.58-2.61-.2-.88-.38-1.74-.52-2.6-.27-1.66-.45-3.31-.54-4.96-.09-1.64-.1-3.29-.05-4.94.06-1.73.2-3.44.41-5.15.21-1.7.51-3.4.9-5.09.07-.29.1-.61.09-.97-.01-.36-.2-.53-.57-.53-.37,0-.77.03-1.18.08-.41.05-.82.08-1.22.08-.24,0-.33-.1-.27-.31.07-.24.23-.39.5-.47.57-.13,1.13-.24,1.67-.31.54-.08,1.08-.17,1.62-.27.49-.1,1.07-.25,1.76-.45.69-.2,1.25-.29,1.67-.29.16,0,.24.05.24.14,0,.09-.02.2-.07.33-.67,2.14-1.2,4.31-1.57,6.5-.38,2.19-.64,4.4-.77,6.61.61-.62,1.36-1.24,2.25-1.86.89-.62,1.84-1.14,2.84-1.55,1-.42,1.94-.63,2.79-.62,1.73,0,3.06.26,3.99.77.93.51,1.55,1.3,1.89,2.36.34,1.07.49,2.45.54,4.15.05,2.02.22,4.04.5,6.03.28,2,.69,3.98,1.24,5.95.12.42.32.71.59.88.28.17.63.26,1.06.26.19,0,.36-.01.53-.04.17-.03.34-.04.53-.04.13,0,.27.06.41.18.14.12.23.24.27.37Z"/>
    <path class="cls-2" d="M90.8,30.86c.2,2.02.03,3.82-.58,5.42-.61,1.59-1.55,2.84-2.89,3.76-1.34.92-3,1.37-5,1.37-1.95,0-3.86-.46-5.71-1.39-1.85-.93-3.44-2.18-4.71-3.76-1.27-1.58-2.03-3.35-2.23-5.32-.2-2.02.18-3.89,1.11-5.6.93-1.71,2.27-3.1,3.96-4.15,1.69-1.05,3.6-1.57,5.67-1.57,2.24,0,4.08.48,5.56,1.43,1.48.96,2.57,2.28,3.35,3.96.78,1.69,1.24,3.64,1.46,5.85ZM86.67,30.74c-.11-1.16-.27-2.32-.48-3.5-.2-1.17-.51-2.26-.94-3.26-.43-1-1.04-1.8-1.87-2.41-.83-.61-1.94-.91-3.35-.91-1.33,0-2.46.32-3.35.97-.89.65-1.61,1.48-2.11,2.51-.5,1.03-.83,2.13-.97,3.32-.14,1.19-.15,2.31-.04,3.36.11,1.16.35,2.31.72,3.46.37,1.15.91,2.18,1.6,3.09.69.91,1.58,1.64,2.63,2.19,1.05.55,2.29.83,3.7.83,1.39,0,2.41-.29,3.09-.86.68-.58,1.11-1.34,1.33-2.29.22-.95.3-2,.26-3.13-.04-1.14-.11-2.26-.22-3.36Z"/>
    <path class="cls-2" d="M110.02,39.45c.07.24-.05.47-.34.71-.29.24-.66.45-1.11.63-.45.18-.89.33-1.33.43-.43.1-.76.16-.97.16-1.39,0-2.52-.17-3.38-.51-.87-.34-1.57-.9-2.09-1.69-.52-.79-.95-1.86-1.23-3.21-.45-2.21-.75-4.44-.89-6.69-.14-2.25-.12-4.5.06-6.74-.96,0-1.92,0-2.88,0-.19,0-.34.05-.47.14-.13.09-.26.14-.39.14-.13,0-.19-.09-.18-.28,0-.11.09-.32.27-.65.17-.32.29-.54.36-.65.08.03.2.04.36.04h3.12c.17-1.71.43-3.41.78-5.1.69-.4,1.34-.84,1.96-1.33.62-.49,1.24-.99,1.88-1.49.07-.05.13-.1.2-.14.06-.04.12-.06.18-.06.24,0,.34.09.29.28-.74,2.57-1.27,5.18-1.6,7.8.85,0,1.7-.01,2.54-.04.84-.03,1.68-.04,2.5-.04.35,0,.5.2.47.61-.04.51-.28.77-.74.77-1.63,0-3.25,0-4.88,0-.14,2.05-.16,4.11-.06,6.17.1,2.06.34,4.13.71,6.18.19,1.03.41,2.05.66,3.07.16.66.57,1.11,1.2,1.36.63.25,1.21.37,1.75.37.75,0,1.45-.12,2.1-.35.07-.05.17-.1.32-.16.15-.05.26-.08.34-.08.27,0,.43.12.5.35Z"/>
    <path class="cls-2" d="M132.88,30.86c.2,2.02.03,3.82-.58,5.42-.61,1.59-1.55,2.84-2.89,3.76-1.34.92-3,1.37-5,1.37-1.94,0-3.86-.46-5.71-1.39-1.85-.93-3.44-2.18-4.71-3.76-1.27-1.58-2.03-3.35-2.23-5.32-.2-2.02.18-3.89,1.11-5.6.93-1.71,2.27-3.1,3.96-4.15,1.69-1.05,3.6-1.57,5.67-1.57,2.24,0,4.08.48,5.56,1.43,1.48.96,2.57,2.28,3.35,3.96.78,1.69,1.24,3.64,1.46,5.85ZM128.75,30.74c-.11-1.16-.27-2.32-.48-3.5-.21-1.17-.51-2.26-.94-3.26-.43-1-1.04-1.8-1.87-2.41-.83-.61-1.94-.91-3.35-.91-1.33,0-2.46.32-3.35.97-.89.65-1.61,1.48-2.11,2.51-.5,1.03-.83,2.13-.97,3.32-.14,1.19-.15,2.31-.04,3.36.11,1.16.35,2.31.72,3.46.37,1.15.91,2.18,1.6,3.09.69.91,1.58,1.64,2.63,2.19,1.05.55,2.29.83,3.7.83,1.39,0,2.41-.29,3.09-.86.68-.58,1.11-1.34,1.33-2.29.22-.95.3-2,.26-3.13-.04-1.14-.11-2.26-.22-3.36Z"/>
    <path class="cls-2" d="M150.57,40.67c.04.13.04.26,0,.37-.04.12-.13.18-.26.18-.75,0-1.49-.02-2.24-.06-.75-.04-1.51-.06-2.28-.06-.36,0-.72,0-1.08,0-.8,0-1.59.02-2.36.06-.77.04-1.55.06-2.32.06-.11,0-.2-.06-.28-.2-.08-.13-.13-.23-.16-.31-.04-.13-.06-.23-.05-.29,0-.07.07-.11.2-.14.12-.05.26-.07.44-.06.18.01.35.02.51.02.19,0,.36,0,.53.02.16.01.34.02.53.02.37,0,.69-.09.94-.25.26-.17.32-.46.21-.89-1.44-5.26-2-10.69-1.69-16.08.03-.46-.03-.81-.17-1.07-.14-.26-.46-.38-.97-.38-.37,0-.76.02-1.15.06-.39.04-.77.09-1.15.14-.21,0-.31-.12-.29-.36.02-.27.15-.44.37-.52.33-.11.68-.18,1.04-.22.36-.04.71-.09,1.04-.14.76-.13,1.52-.28,2.29-.44.76-.16,1.52-.34,2.26-.52.08-.03.19-.04.33-.04.29,0,.42.16.38.48-.37,3.17-.45,6.38-.23,9.59.22,3.21.76,6.4,1.62,9.52.12.42.39.71.83.89.44.17.83.25,1.17.25.27,0,.54-.01.81-.04.27-.03.54-.04.81-.04.11,0,.19.06.26.2.07.13.11.22.12.27ZM146.82,12.92c-.18.66-.55,1.22-1.14,1.68-.59.46-1.21.7-1.88.7-.67,0-1.19-.23-1.56-.7-.37-.46-.48-1.02-.3-1.68.18-.66.58-1.21,1.2-1.67.62-.46,1.27-.68,1.94-.68.67,0,1.17.23,1.51.68.34.46.42,1.01.24,1.67Z"/>
    <path class="cls-2" d="M168.1,23.42c-.01.27-.12.52-.33.75-.21.23-.46.34-.75.34-.4,0-.68-.13-.85-.4-.16-.27-.3-.58-.4-.93-.1-.35-.26-.66-.48-.93-.22-.27-.61-.4-1.17-.4-.11,0-.21,0-.3,0-.09,0-.19.01-.3.04-.46.08-.98.36-1.54.85-.57.49-1.11,1.06-1.62,1.72-.51.66-.93,1.32-1.24,1.96-.31.65-.47,1.19-.48,1.62,0,.43,0,.86.03,1.27.03.42.06.83.1,1.23.13,1.45.34,2.9.61,4.34.28,1.44.61,2.86.99,4.25.11.39.36.68.74.85.38.17.75.25,1.09.25.27,0,.53-.01.79-.04.26-.03.52-.04.79-.04.13,0,.24.06.33.18.09.12.15.23.18.33.13.42-.02.63-.44.63-.8,0-1.61-.02-2.42-.06-.81-.04-1.62-.06-2.42-.06-.83,0-1.65.03-2.47.08-.82.05-1.66.08-2.51.08-.11,0-.21-.08-.29-.23-.09-.16-.15-.29-.18-.39-.08-.26-.02-.4.19-.43.28-.05.58-.07.91-.04.33.03.62.04.89.04.4,0,.7-.09.9-.25.2-.17.26-.46.17-.89-.18-.84-.35-1.7-.53-2.57-.18-.88-.34-1.76-.48-2.64-.21-1.3-.37-2.6-.48-3.91-.12-1.16-.18-2.31-.18-3.46,0-1.15-.02-2.29-.07-3.42,0-.54-.11-.92-.36-1.15-.25-.23-.64-.34-1.17-.34-.21,0-.44.02-.67.06-.23.04-.46.06-.7.06-.21,0-.31-.16-.28-.48.02-.19.12-.32.32-.4.27-.08.56-.14.86-.18.3-.04.58-.07.85-.1.73-.13,1.47-.27,2.2-.4.73-.13,1.47-.3,2.22-.48.23.08.38.23.47.44.04.11.05.4.03.89-.02.48-.05,1.04-.1,1.68-.04.63-.07,1.23-.08,1.78-.02.55-.02.94-.02,1.15.59-.94,1.29-1.89,2.09-2.83.8-.94,1.73-1.72,2.76-2.34,1.03-.62,2.15-.93,3.35-.93.64,0,1.03.2,1.17.6.14.4.21.87.22,1.41.03.3.05.61.07.93.02.32.02.63,0,.93Z"/>
    <path class="cls-2" d="M191.63,36.44c.03.13.02.21-.03.24-.02.27-.14.58-.36.95-.22.37-.47.72-.76,1.05-.29.33-.53.57-.72.73-.71.6-1.56,1.09-2.55,1.45-.99.37-2.03.55-3.13.55-.91,0-1.96-.14-3.16-.43-1.2-.29-2.26-.68-3.17-1.18-1.77-.97-3.21-2.25-4.23-3.84-1.02-1.59-1.63-3.27-1.8-5.02-.2-1.99.12-3.84.91-5.54.79-1.7,2.13-3.08,3.93-4.13.82-.46,1.72-.84,2.72-1.15,1-.31,1.94-.46,2.82-.46,1.57,0,2.92.32,4.05.97,1.13.65,1.99,1.55,2.61,2.73.62,1.17.93,2.57.98,4.19.02.46-.07.76-.26.89-.19.14-.49.2-.89.2-.53,0-1.07-.01-1.6-.04-.54-.03-1.07-.05-1.6-.08-.75-.05-1.49-.08-2.22-.08h-4.94c-.91,0-1.81.03-2.72.08,0,.43,0,.85,0,1.25,0,.4.03.82.07,1.25.1,1,.36,2.02.77,3.08.41,1.06,1,2.03,1.73,2.92.73.89,1.6,1.6,2.57,2.14.98.54,2.06.81,3.23.81,1.2,0,2.29-.18,3.28-.55.99-.37,1.83-.96,2.54-1.78.18-.24.34-.5.48-.77.14-.28.3-.52.5-.74.11-.13.24-.2.4-.2.13,0,.25.05.35.16.1.11.17.23.2.36ZM185.93,27.23c-.06-1.11-.14-2.17-.26-3.18-.12-1.01-.45-1.85-1-2.51-.56-.66-1.52-.99-2.9-.99-1.25,0-2.31.34-3.16,1.03-.85.69-1.51,1.55-1.98,2.59-.46,1.04-.79,2.1-.97,3.18.67.03,1.32.05,1.96.06.64.01,1.28.02,1.92.02,1.07,0,2.13-.02,3.2-.06,1.07-.04,2.13-.09,3.2-.14Z"/>
  </g>
  <g>
    <line class="cls-1" x1=".25" y1=".25" x2="10.25" y2=".25"/>
    <line class="cls-1" x1=".25" y1=".25" x2=".25" y2="10.25"/>
  </g>
  <g>
    <line class="cls-1" x1="203.5" y1="1.5" x2="193.5" y2="1.5"/>
    <line class="cls-1" x1="203.5" y1="1.5" x2="203.5" y2="11.5"/>
  </g>
  <g>
    <line class="cls-1" x1="204.5" y1="48.5" x2="194.5" y2="48.5"/>
    <line class="cls-1" x1="204.5" y1="48.5" x2="204.5" y2="38.5"/>
  </g>
  <g>
    <line class="cls-1" x1="1" y1="49" x2="11" y2="49"/>
    <line class="cls-1" x1="1" y1="49" x2="1" y2="39"/>
  </g>
</svg>